<svg width="24" height="24" viewBox="0 0 24 24" fill="none" xmlns="http://www.w3.org/2000/svg">
<path fill-rule="evenodd" clip-rule="evenodd" d="M6.51992 16.4196C6.22703 16.7125 6.22703 17.1874 6.51992 17.4803C6.81281 17.7732 7.28769 17.7732 7.58058 17.4803L12 13.0609L16.4194 17.4803C16.7123 17.7732 17.1872 17.7732 17.4801 17.4803C17.773 17.1874 17.773 16.7125 17.4801 16.4196L13.0607 12.0002L17.4801 7.58078C17.773 7.28788 17.773 6.81301 17.4801 6.52012C17.1872 6.22722 16.7123 6.22722 16.4194 6.52012L12 10.9395L7.58058 6.52012C7.28769 6.22722 6.81282 6.22722 6.51992 6.52012C6.22703 6.81301 6.22703 7.28788 6.51992 7.58078L10.9393 12.0002L6.51992 16.4196Z" fill="#16181D"/>
</svg>